<?xml version="1.0" encoding="utf-8"?>
<svg xmlns="http://www.w3.org/2000/svg" xmlns:xlink="http://www.w3.org/1999/xlink" style="margin: auto; background: rgb(255, 255, 255); display: block; shape-rendering: auto;" width="108px" height="108px" viewBox="0 0 100 100" preserveAspectRatio="xMidYMid">
<g transform="translate(50 50)">
<g>
<animateTransform attributeName="transform" type="rotate" values="0;45" keyTimes="0;1" dur="0.4s" repeatCount="indefinite"></animateTransform><path d="M29.895651857753492 -2.5 L37.89565185775349 -2.5 L37.89565185775349 2.5 L29.895651857753492 2.5 A30 30 0 0 1 22.907185109576073 19.371651203643335 L22.907185109576073 19.371651203643335 L28.564039359068452 25.028505453135715 L25.028505453135715 28.564039359068452 L19.371651203643335 22.907185109576073 A30 30 0 0 1 2.500000000000002 29.895651857753492 L2.500000000000002 29.895651857753492 L2.5000000000000027 37.89565185775349 L-2.4999999999999982 37.89565185775349 L-2.4999999999999987 29.895651857753492 A30 30 0 0 1 -19.37165120364333 22.907185109576076 L-19.37165120364333 22.907185109576076 L-25.02850545313571 28.56403935906846 L-28.56403935906845 25.028505453135722 L-22.90718510957607 19.37165120364334 A30 30 0 0 1 -29.895651857753492 2.500000000000004 L-29.895651857753492 2.500000000000004 L-37.89565185775349 2.500000000000005 L-37.89565185775349 -2.4999999999999956 L-29.895651857753496 -2.4999999999999964 A30 30 0 0 1 -22.907185109576076 -19.37165120364333 L-22.907185109576076 -19.37165120364333 L-28.56403935906846 -25.028505453135708 L-25.02850545313573 -28.56403935906844 L-19.371651203643346 -22.907185109576062 A30 30 0 0 1 -2.499999999999993 -29.895651857753496 L-2.499999999999993 -29.895651857753496 L-2.4999999999999942 -37.89565185775349 L2.49999999999998 -37.89565185775349 L2.4999999999999813 -29.895651857753496 A30 30 0 0 1 19.371651203643342 -22.90718510957607 L19.371651203643342 -22.90718510957607 L25.028505453135722 -28.564039359068452 L28.56403935906844 -25.02850545313573 L22.90718510957606 -19.37165120364335 A30 30 0 0 1 29.895651857753496 -2.4999999999999947 M0 -20A20 20 0 1 0 0 20 A20 20 0 1 0 0 -20" fill="#e1a35b"></path></g></g>
<!-- [ldio] generated by https://loading.io/ --></svg>